TITLE ""
FILE "Step1_Track31.mp3" MP3
  TRACK 01 AUDIO
    TITLE "Step1_Track31_01"
    INDEX 01 00:00:00
  TRACK 02 AUDIO
    TITLE "Step1_Track31_02"
    INDEX 01 00:00:24
  TRACK 03 AUDIO
    TITLE "Step1_Track31_03"
    INDEX 01 00:01:70
  TRACK 04 AUDIO
    TITLE "Step1_Track31_04"
    INDEX 01 00:02:56
  TRACK 05 AUDIO
    TITLE "Step1_Track31_05"
    INDEX 01 00:03:50
  TRACK 06 AUDIO
    TITLE "Step1_Track31_06"
    INDEX 01 00:04:06
  TRACK 07 AUDIO
    TITLE "Step1_Track31_07"
    INDEX 01 00:06:09
  TRACK 08 AUDIO
    TITLE "Step1_Track31_08"
    INDEX 01 00:06:40
  TRACK 09 AUDIO
    TITLE "Step1_Track31_09"
    INDEX 01 00:07:42
  TRACK 10 AUDIO
    TITLE "Step1_Track31_10"
    INDEX 01 00:07:44
  TRACK 11 AUDIO
    TITLE "Step1_Track31_11"
    INDEX 01 00:10:01
  TRACK 12 AUDIO
    TITLE "Step1_Track31_12"
    INDEX 01 00:10:22
  TRACK 13 AUDIO
    TITLE "Step1_Track31_13"
    INDEX 01 00:11:22
  TRACK 14 AUDIO
    TITLE "Step1_Track31_14"
    INDEX 01 00:11:34
  TRACK 15 AUDIO
    TITLE "Step1_Track31_15"
    INDEX 01 00:13:33
  TRACK 16 AUDIO
    TITLE "Step1_Track31_16"
    INDEX 01 00:13:60
  TRACK 17 AUDIO
    TITLE "Step1_Track31_17"
    INDEX 01 00:14:61
  TRACK 18 AUDIO
    TITLE "Step1_Track31_18"
    INDEX 01 00:15:00
  TRACK 19 AUDIO
    TITLE "Step1_Track31_19"
    INDEX 01 00:16:74
  TRACK 20 AUDIO
    TITLE "Step1_Track31_20"
    INDEX 01 00:17:22
  TRACK 21 AUDIO
    TITLE "Step1_Track31_21"
    INDEX 01 00:18:32
  TRACK 22 AUDIO
    TITLE "Step1_Track31_22"
    INDEX 01 00:18:43
  TRACK 23 AUDIO
    TITLE "Step1_Track31_23"
    INDEX 01 00:21:28
  TRACK 24 AUDIO
    TITLE "Step1_Track31_24"
    INDEX 01 00:21:38
  TRACK 25 AUDIO
    TITLE "Step1_Track31_25"
    INDEX 01 00:22:43
  TRACK 26 AUDIO
    TITLE "Step1_Track31_26"
    INDEX 01 00:22:55
  TRACK 27 AUDIO
    TITLE "Step1_Track31_27"
    INDEX 01 00:24:40
  TRACK 28 AUDIO
    TITLE "Step1_Track31_28"
    INDEX 01 00:24:64
  TRACK 29 AUDIO
    TITLE "Step1_Track31_29"
    INDEX 01 00:25:69
  TRACK 30 AUDIO
    TITLE "Step1_Track31_30"
    INDEX 01 00:26:06
  TRACK 31 AUDIO
    TITLE "Step1_Track31_31"
    INDEX 01 00:28:13
  TRACK 32 AUDIO
    TITLE "Step1_Track31_32"
    INDEX 01 00:28:44
  TRACK 33 AUDIO
    TITLE "Step1_Track31_33"
    INDEX 01 00:29:24
  TRACK 34 AUDIO
    TITLE "Step1_Track31_34"
    INDEX 01 00:29:57
  TRACK 35 AUDIO
    TITLE "Step1_Track31_35"
    INDEX 01 00:31:30
  TRACK 36 AUDIO
    TITLE "Step1_Track31_36"
    INDEX 01 00:31:62
  TRACK 37 AUDIO
    TITLE "Step1_Track31_37"
    INDEX 01 00:32:63
  TRACK 38 AUDIO
    TITLE "Step1_Track31_38"
    INDEX 01 00:33:00
  TRACK 39 AUDIO
    TITLE "Step1_Track31_39"
    INDEX 01 00:35:01
  TRACK 40 AUDIO
    TITLE "Step1_Track31_40"
    INDEX 01 00:35:20
  TRACK 41 AUDIO
    TITLE "Step1_Track31_41"
    INDEX 01 00:36:18
  TRACK 42 AUDIO
    TITLE "Step1_Track31_42"
    INDEX 01 00:36:24
  TRACK 43 AUDIO
    TITLE "Step1_Track31_43"
    INDEX 01 00:39:36
